<svg width="128" height="128" viewBox="0 0 128 128" fill="none" xmlns="http://www.w3.org/2000/svg">
<path d="M85.4027 77.336C78.0373 90.0934 61.7253 94.464 48.968 87.0987C45.5378 85.1232 42.5923 82.4064 40.3467 79.1467C40.1726 78.8943 40.059 78.6053 40.0144 78.3021C39.9698 77.9988 39.9956 77.6893 40.0897 77.3976C40.1837 77.1058 40.3436 76.8396 40.5569 76.6195C40.7703 76.3993 41.0313 76.2312 41.32 76.128C51.3653 72.5334 56.7467 68.368 59.8693 62.4053C63.1573 56.1307 64.0053 49.2587 61.7067 39.8373C61.6325 39.5341 61.6304 39.2177 61.7005 38.9135C61.7706 38.6093 61.9109 38.3257 62.1102 38.0855C62.3095 37.8452 62.5622 37.655 62.8483 37.5299C63.1343 37.4049 63.4456 37.3485 63.7573 37.3653C67.9428 37.5906 72.0156 38.8032 75.6427 40.904C88.4 48.2693 92.7707 64.5813 85.4027 77.336Z" fill="#C8392E"/>
<mask id="path-2-outside-1_369_20" maskUnits="userSpaceOnUse" x="38" y="41" width="16" height="20" fill="black">
<rect fill="white" x="38" y="41" width="16" height="20"/>
<path d="M46.0391 52.5117H41.6562L41.6328 50.0977H45.3125C45.9609 50.0977 46.4922 50.0156 46.9062 49.8516C47.3203 49.6797 47.6289 49.4336 47.832 49.1133C48.043 48.7852 48.1484 48.3867 48.1484 47.918C48.1484 47.3867 48.0469 46.957 47.8438 46.6289C47.6484 46.3008 47.3398 46.0625 46.918 45.9141C46.5039 45.7656 45.9688 45.6914 45.3125 45.6914H42.875V60H39.3594V42.9375H45.3125C46.3047 42.9375 47.1914 43.0312 47.9727 43.2188C48.7617 43.4062 49.4297 43.6914 49.9766 44.0742C50.5234 44.457 50.9414 44.9414 51.2305 45.5273C51.5195 46.1055 51.6641 46.793 51.6641 47.5898C51.6641 48.293 51.5039 48.9414 51.1836 49.5352C50.8711 50.1289 50.375 50.6133 49.6953 50.9883C49.0234 51.3633 48.1445 51.5703 47.0586 51.6094L46.0391 52.5117ZM45.8867 60H40.6953L42.0664 57.2578H45.8867C46.5039 57.2578 47.0078 57.1602 47.3984 56.9648C47.7891 56.7617 48.0781 56.4883 48.2656 56.1445C48.4531 55.8008 48.5469 55.4062 48.5469 54.9609C48.5469 54.4609 48.4609 54.0273 48.2891 53.6602C48.125 53.293 47.8594 53.0117 47.4922 52.8164C47.125 52.6133 46.6406 52.5117 46.0391 52.5117H42.6523L42.6758 50.0977H46.8945L47.7031 51.0469C48.7422 51.0312 49.5781 51.2148 50.2109 51.5977C50.8516 51.9727 51.3164 52.4609 51.6055 53.0625C51.9023 53.6641 52.0508 54.3086 52.0508 54.9961C52.0508 56.0898 51.8125 57.0117 51.3359 57.7617C50.8594 58.5039 50.1602 59.0625 49.2383 59.4375C48.3242 59.8125 47.207 60 45.8867 60Z"/>
</mask>
<path d="M46.0391 52.5117H41.6562L41.6328 50.0977H45.3125C45.9609 50.0977 46.4922 50.0156 46.9062 49.8516C47.3203 49.6797 47.6289 49.4336 47.832 49.1133C48.043 48.7852 48.1484 48.3867 48.1484 47.918C48.1484 47.3867 48.0469 46.957 47.8438 46.6289C47.6484 46.3008 47.3398 46.0625 46.918 45.9141C46.5039 45.7656 45.9688 45.6914 45.3125 45.6914H42.875V60H39.3594V42.9375H45.3125C46.3047 42.9375 47.1914 43.0312 47.9727 43.2188C48.7617 43.4062 49.4297 43.6914 49.9766 44.0742C50.5234 44.457 50.9414 44.9414 51.2305 45.5273C51.5195 46.1055 51.6641 46.793 51.6641 47.5898C51.6641 48.293 51.5039 48.9414 51.1836 49.5352C50.8711 50.1289 50.375 50.6133 49.6953 50.9883C49.0234 51.3633 48.1445 51.5703 47.0586 51.6094L46.0391 52.5117ZM45.8867 60H40.6953L42.0664 57.2578H45.8867C46.5039 57.2578 47.0078 57.1602 47.3984 56.9648C47.7891 56.7617 48.0781 56.4883 48.2656 56.1445C48.4531 55.8008 48.5469 55.4062 48.5469 54.9609C48.5469 54.4609 48.4609 54.0273 48.2891 53.6602C48.125 53.293 47.8594 53.0117 47.4922 52.8164C47.125 52.6133 46.6406 52.5117 46.0391 52.5117H42.6523L42.6758 50.0977H46.8945L47.7031 51.0469C48.7422 51.0312 49.5781 51.2148 50.2109 51.5977C50.8516 51.9727 51.3164 52.4609 51.6055 53.0625C51.9023 53.6641 52.0508 54.3086 52.0508 54.9961C52.0508 56.0898 51.8125 57.0117 51.3359 57.7617C50.8594 58.5039 50.1602 59.0625 49.2383 59.4375C48.3242 59.8125 47.207 60 45.8867 60Z" fill="white"/>
<path d="M46.0391 52.5117V53.5117H46.418L46.7018 53.2606L46.0391 52.5117ZM41.6562 52.5117L40.6563 52.5214L40.6659 53.5117H41.6562V52.5117ZM41.6328 50.0977V49.0977H40.6231L40.6329 50.1074L41.6328 50.0977ZM46.9062 49.8516L47.2746 50.7812L47.2821 50.7783L47.2896 50.7752L46.9062 49.8516ZM47.832 49.1133L46.9908 48.5725L46.9875 48.5777L47.832 49.1133ZM47.8438 46.6289L46.9845 47.1404L46.9889 47.1479L46.9935 47.1553L47.8438 46.6289ZM46.918 45.9141L46.5805 46.8554L46.5861 46.8574L46.918 45.9141ZM42.875 45.6914V44.6914H41.875V45.6914H42.875ZM42.875 60V61H43.875V60H42.875ZM39.3594 60H38.3594V61H39.3594V60ZM39.3594 42.9375V41.9375H38.3594V42.9375H39.3594ZM47.9727 43.2188L47.7393 44.1911L47.7415 44.1917L47.9727 43.2188ZM51.2305 45.5273L50.3336 45.9698L50.336 45.9746L51.2305 45.5273ZM51.1836 49.5352L50.3034 49.0603L50.2987 49.0694L51.1836 49.5352ZM49.6953 50.9883L49.2122 50.1127L49.2079 50.1151L49.6953 50.9883ZM47.0586 51.6094L47.0226 50.61L46.6643 50.6229L46.3958 50.8605L47.0586 51.6094ZM40.6953 60L39.8009 59.5528L39.0773 61H40.6953V60ZM42.0664 57.2578V56.2578H41.4484L41.172 56.8106L42.0664 57.2578ZM47.3984 56.9648L47.8457 57.8593L47.8527 57.8557L47.8598 57.8521L47.3984 56.9648ZM48.2891 53.6602L47.3761 54.0681L47.3796 54.0761L47.3834 54.0841L48.2891 53.6602ZM47.4922 52.8164L47.0081 53.6914L47.0153 53.6954L47.0226 53.6993L47.4922 52.8164ZM42.6523 52.5117L41.6524 52.502L41.6426 53.5117H42.6523V52.5117ZM42.6758 50.0977V49.0977H41.6854L41.6758 50.0879L42.6758 50.0977ZM46.8945 50.0977L47.6558 49.4492L47.3563 49.0977H46.8945V50.0977ZM47.7031 51.0469L46.9419 51.6953L47.2473 52.0538L47.7182 52.0468L47.7031 51.0469ZM50.2109 51.5977L49.6933 52.4533L49.6995 52.457L49.7058 52.4607L50.2109 51.5977ZM51.6055 53.0625L50.7041 53.4956L50.7087 53.505L51.6055 53.0625ZM51.3359 57.7617L52.1774 58.302L52.18 58.298L51.3359 57.7617ZM49.2383 59.4375L48.8615 58.5112L48.8587 58.5123L49.2383 59.4375ZM46.0391 51.5117H41.6562V53.5117H46.0391V51.5117ZM42.6562 52.502L42.6328 50.0879L40.6329 50.1074L40.6563 52.5214L42.6562 52.502ZM41.6328 51.0977H45.3125V49.0977H41.6328V51.0977ZM45.3125 51.0977C46.0345 51.0977 46.7028 51.0078 47.2746 50.7812L46.5379 48.9219C46.2816 49.0234 45.8873 49.0977 45.3125 49.0977V51.0977ZM47.2896 50.7752C47.8582 50.5391 48.3444 50.1726 48.6765 49.6488L46.9875 48.5777C46.9135 48.6945 46.7824 48.8202 46.5229 48.928L47.2896 50.7752ZM48.6732 49.654C49.0071 49.1346 49.1484 48.5394 49.1484 47.918H47.1484C47.1484 48.2341 47.0788 48.4357 46.9909 48.5725L48.6732 49.654ZM49.1484 47.918C49.1484 47.2681 49.0253 46.6377 48.694 46.1026L46.9935 47.1553C47.0685 47.2764 47.1484 47.5053 47.1484 47.918H49.1484ZM48.703 46.1174C48.368 45.5546 47.853 45.1829 47.2499 44.9708L46.5861 46.8574C46.8267 46.9421 46.9289 47.047 46.9845 47.1404L48.703 46.1174ZM47.2554 44.9727C46.6937 44.7714 46.0328 44.6914 45.3125 44.6914V46.6914C45.9047 46.6914 46.3141 46.7599 46.5805 46.8554L47.2554 44.9727ZM45.3125 44.6914H42.875V46.6914H45.3125V44.6914ZM41.875 45.6914V60H43.875V45.6914H41.875ZM42.875 59H39.3594V61H42.875V59ZM40.3594 60V42.9375H38.3594V60H40.3594ZM39.3594 43.9375H45.3125V41.9375H39.3594V43.9375ZM45.3125 43.9375C46.2437 43.9375 47.0499 44.0257 47.7393 44.1911L48.206 42.2464C47.333 42.0368 46.3657 41.9375 45.3125 41.9375V43.9375ZM47.7415 44.1917C48.4334 44.3561 48.9792 44.5967 49.4031 44.8935L50.55 43.255C49.8802 42.7861 49.09 42.4564 48.2038 42.2458L47.7415 44.1917ZM49.4031 44.8935C49.8153 45.182 50.1207 45.538 50.3337 45.9698L52.1273 45.0849C51.7622 44.3448 51.2315 43.732 50.55 43.255L49.4031 44.8935ZM50.336 45.9746C50.5414 46.3852 50.6641 46.9127 50.6641 47.5898H52.6641C52.6641 46.6732 52.4977 45.8257 52.1249 45.0801L50.336 45.9746ZM50.6641 47.5898C50.6641 48.1345 50.5417 48.6188 50.3035 49.0604L52.0637 50.0099C52.4661 49.2641 52.6641 48.4515 52.6641 47.5898H50.6641ZM50.2987 49.0694C50.0908 49.4644 49.7483 49.8169 49.2122 50.1127L50.1784 51.8639C51.0017 51.4096 51.6514 50.7935 52.0685 50.0009L50.2987 49.0694ZM49.2079 50.1151C48.7195 50.3877 48.0115 50.5745 47.0226 50.61L47.0945 52.6087C48.2776 52.5662 49.3274 52.3389 50.1827 51.8615L49.2079 50.1151ZM46.3958 50.8605L45.3763 51.7629L46.7018 53.2606L47.7214 52.3582L46.3958 50.8605ZM45.8867 59H40.6953V61H45.8867V59ZM41.5897 60.4472L42.9608 57.705L41.172 56.8106L39.8009 59.5528L41.5897 60.4472ZM42.0664 58.2578H45.8867V56.2578H42.0664V58.2578ZM45.8867 58.2578C46.5991 58.2578 47.2709 58.1466 47.8457 57.8593L46.9512 56.0704C46.7447 56.1737 46.4087 56.2578 45.8867 56.2578V58.2578ZM47.8598 57.8521C48.404 57.5691 48.8493 57.1628 49.1435 56.6234L47.3877 55.6657C47.307 55.8137 47.1741 55.9544 46.9371 56.0776L47.8598 57.8521ZM49.1435 56.6234C49.4216 56.1136 49.5469 55.5503 49.5469 54.9609H47.5469C47.5469 55.2622 47.4847 55.488 47.3877 55.6657L49.1435 56.6234ZM49.5469 54.9609C49.5469 54.3478 49.4415 53.7633 49.1948 53.2362L47.3834 54.0841C47.4804 54.2913 47.5469 54.5741 47.5469 54.9609H49.5469ZM49.2021 53.2522C48.9439 52.6744 48.5183 52.2295 47.9618 51.9335L47.0226 53.6993C47.2005 53.7939 47.3061 53.9115 47.3761 54.0681L49.2021 53.2522ZM47.9762 51.9414C47.4105 51.6284 46.7411 51.5117 46.0391 51.5117V53.5117C46.5402 53.5117 46.8395 53.5982 47.0081 53.6914L47.9762 51.9414ZM46.0391 51.5117H42.6523V53.5117H46.0391V51.5117ZM43.6523 52.5214L43.6757 50.1074L41.6758 50.0879L41.6524 52.502L43.6523 52.5214ZM42.6758 51.0977H46.8945V49.0977H42.6758V51.0977ZM46.1333 50.7461L46.9419 51.6953L48.4644 50.3984L47.6558 49.4492L46.1333 50.7461ZM47.7182 52.0468C48.6423 52.0329 49.2735 52.1993 49.6933 52.4533L50.7285 50.742C49.8827 50.2304 48.8421 50.0296 47.6881 50.047L47.7182 52.0468ZM49.7058 52.4607C50.1945 52.7468 50.5109 53.0935 50.7041 53.4956L52.5068 52.6294C52.1219 51.8284 51.5086 51.1985 50.7161 50.7346L49.7058 52.4607ZM50.7087 53.505C50.936 53.9655 51.0508 54.4581 51.0508 54.9961H53.0508C53.0508 54.1591 52.8687 53.3626 52.5022 52.62L50.7087 53.505ZM51.0508 54.9961C51.0508 55.9438 50.8454 56.6692 50.4919 57.2254L52.18 58.298C52.7796 57.3543 53.0508 56.2359 53.0508 54.9961H51.0508ZM50.4945 57.2214C50.1433 57.7683 49.6179 58.2035 48.8615 58.5112L49.6151 60.3638C50.7024 59.9215 51.5754 59.2395 52.1774 58.302L50.4945 57.2214ZM48.8587 58.5123C48.0982 58.8243 47.1182 59 45.8867 59V61C47.2959 61 48.5502 60.8007 49.6178 60.3627L48.8587 58.5123Z" fill="#1C1F1E" mask="url(#path-2-outside-1_369_20)"/>
</svg>
